<svg id="Empresas_Clientes_bot찾o" data-name="Empresas / Clientes bot찾o" xmlns="http://www.w3.org/2000/svg" width="396" height="166" viewBox="0 0 396 166">
  <rect id="Ret창ngulo_159" data-name="Ret창ngulo 159" width="396" height="166" rx="5" fill="#5daca5"/>
  <path id="Icon_awesome-building" data-name="Icon awesome-building" d="M76.163,83.849H72.669V4.192A4.192,4.192,0,0,0,68.476,0H9.782A4.192,4.192,0,0,0,5.59,4.192V83.849H2.1a2.1,2.1,0,0,0-2.1,2.1v3.494H78.259V85.945A2.1,2.1,0,0,0,76.163,83.849ZM22.36,13.276a2.1,2.1,0,0,1,2.1-2.1h6.987a2.1,2.1,0,0,1,2.1,2.1v6.987a2.1,2.1,0,0,1-2.1,2.1H24.456a2.1,2.1,0,0,1-2.1-2.1Zm0,16.77a2.1,2.1,0,0,1,2.1-2.1h6.987a2.1,2.1,0,0,1,2.1,2.1v6.987a2.1,2.1,0,0,1-2.1,2.1H24.456a2.1,2.1,0,0,1-2.1-2.1ZM31.443,55.9H24.456a2.1,2.1,0,0,1-2.1-2.1V46.816a2.1,2.1,0,0,1,2.1-2.1h6.987a2.1,2.1,0,0,1,2.1,2.1V53.8A2.1,2.1,0,0,1,31.443,55.9Zm13.276,27.95H33.54V69.175a2.1,2.1,0,0,1,2.1-2.1h6.987a2.1,2.1,0,0,1,2.1,2.1ZM55.9,53.8a2.1,2.1,0,0,1-2.1,2.1H46.816a2.1,2.1,0,0,1-2.1-2.1V46.816a2.1,2.1,0,0,1,2.1-2.1H53.8a2.1,2.1,0,0,1,2.1,2.1Zm0-16.77a2.1,2.1,0,0,1-2.1,2.1H46.816a2.1,2.1,0,0,1-2.1-2.1V30.046a2.1,2.1,0,0,1,2.1-2.1H53.8a2.1,2.1,0,0,1,2.1,2.1Zm0-16.77a2.1,2.1,0,0,1-2.1,2.1H46.816a2.1,2.1,0,0,1-2.1-2.1V13.276a2.1,2.1,0,0,1,2.1-2.1H53.8a2.1,2.1,0,0,1,2.1,2.1Z" transform="translate(159 58.561)" fill="rgba(0,0,0,0.2)"/>
  <text id="Clientes" transform="translate(149 47)" fill="#fff" font-size="28" font-family="Lato-Regular, Lato"><tspan x="0" y="0">Clientes</tspan></text>
</svg>
