<svg xmlns="http://www.w3.org/2000/svg" width="40.989" height="40.989" viewBox="0 0 40.989 40.989">
  <path id="Icon_awesome-key" data-name="Icon awesome-key" d="M40.989,14.09A14.1,14.1,0,0,1,24.271,27.934L22.349,30.1a1.921,1.921,0,0,1-1.436.645h-2.98v3.2a1.921,1.921,0,0,1-1.921,1.921h-3.2v3.2a1.921,1.921,0,0,1-1.921,1.921H1.921A1.921,1.921,0,0,1,0,39.068V32.819A1.922,1.922,0,0,1,.563,31.46L13.516,18.507A14.091,14.091,0,1,1,40.989,14.09ZM26.9,10.247A3.843,3.843,0,1,0,30.742,6.4,3.843,3.843,0,0,0,26.9,10.247Z" fill="rgba(0,0,0,0.42)"/>
</svg>
