<svg xmlns="http://www.w3.org/2000/svg" width="30.552" height="30.552" viewBox="0 0 30.552 30.552">
  <path id="Icon_ionic-md-exit" data-name="Icon ionic-md-exit" d="M16.551,25.886l2.376,2.376,8.487-8.487-8.487-8.487-2.376,2.376,4.413,4.413H4.5v3.395H20.879ZM31.657,4.5H7.895A3.4,3.4,0,0,0,4.5,7.895v6.789H7.895V7.895H31.657V31.657H7.895V24.868H4.5v6.789a3.4,3.4,0,0,0,3.395,3.395H31.657a3.4,3.4,0,0,0,3.395-3.395V7.895A3.4,3.4,0,0,0,31.657,4.5Z" transform="translate(-4.5 -4.5)" fill="#5daca5"/>
</svg>
