<svg id="Cadastrar_Bot찾o" data-name="Cadastrar Bot찾o" xmlns="http://www.w3.org/2000/svg" width="396" height="166" viewBox="0 0 396 166">
  <rect id="Ret창ngulo_161" data-name="Ret창ngulo 161" width="396" height="166" rx="5" fill="#5daca5"/>
  <text id="Cadastrar" transform="translate(198 46)" fill="#fff" font-size="28" font-family="Lato-Regular, Lato"><tspan x="-59.227" y="0">Cadastrar</tspan></text>
  <path id="Icon_ionic-ios-paper" data-name="Icon ionic-ios-paper" d="M25.76,16.274V85.7a3.027,3.027,0,0,1-3.018,3.018h0A3.027,3.027,0,0,1,19.724,85.7V23.173h-3.45a6.892,6.892,0,0,0-6.9,6.9V92.165a6.892,6.892,0,0,0,6.9,6.9H92.4A6.666,6.666,0,0,0,99.064,92.4V16.274a6.892,6.892,0,0,0-6.9-6.9l-59.936.431A6.18,6.18,0,0,0,25.76,16.274Zm14.229,6.9H58.1a3.027,3.027,0,0,1,3.018,3.018h0A3.027,3.027,0,0,1,58.1,29.21H39.99a3.027,3.027,0,0,1-3.018-3.018h0A3.027,3.027,0,0,1,39.99,23.173Zm0,34.5H71.9a3.027,3.027,0,0,1,3.018,3.018h0A3.027,3.027,0,0,1,71.9,63.706H39.99a3.027,3.027,0,0,1-3.018-3.018h0A3.027,3.027,0,0,1,39.99,57.669ZM82.247,80.953H39.99a3.027,3.027,0,0,1-3.018-3.018h0a3.027,3.027,0,0,1,3.018-3.018H82.247a3.027,3.027,0,0,1,3.018,3.018h0A3.027,3.027,0,0,1,82.247,80.953Zm0-34.5H39.99a3.027,3.027,0,0,1-3.018-3.018h0a3.027,3.027,0,0,1,3.018-3.018H82.247a3.027,3.027,0,0,1,3.018,3.018h0A3.027,3.027,0,0,1,82.247,46.458Z" transform="translate(143.625 48.186)" fill="rgba(0,0,0,0.2)"/>
</svg>
