<svg xmlns="http://www.w3.org/2000/svg" width="42.077" height="49" viewBox="0 0 42.077 49">
  <path id="Icon_awesome-user-alt" data-name="Icon awesome-user-alt" d="M21.04,27.563c6.536,0,11.835-6.17,11.835-13.781S27.576,0,21.04,0,9.2,6.17,9.2,13.781,14.5,27.561,21.04,27.563Zm10.52,3.062H27.03a12.486,12.486,0,0,1-11.98,0H10.52C4.708,30.625,0,36.11,0,42.876v1.53C0,46.942,1.766,49,3.944,49H38.132c2.178,0,3.944-2.056,3.945-4.593V42.875c0-6.766-4.71-12.251-10.519-12.25Z" fill="rgba(0,0,0,0.85)"/>
</svg>
